<svg xmlns="http://www.w3.org/2000/svg" style="display:none">

	<symbol id="discord" viewBox="0 -28.5 256 256">
		<path fill="currentColor" d="M216.856 16.597A208.502 208.502 0 0 0 164.042 0c-2.275 4.113-4.933 9.645-6.766 14.046-19.692-2.961-39.203-2.961-58.533 0-1.832-4.4-4.55-9.933-6.846-14.046a207.809 207.809 0 0 0-52.855 16.638C5.618 67.147-3.443 116.4 1.087 164.956c22.169 16.555 43.653 26.612 64.775 33.193A161.094 161.094 0 0 0 79.735 175.3a136.413 136.413 0 0 1-21.846-10.632 108.636 108.636 0 0 0 5.356-4.237c42.122 19.702 87.89 19.702 129.51 0a131.66 131.66 0 0 0 5.355 4.237 136.07 136.07 0 0 1-21.886 10.653c4.006 8.02 8.638 15.67 13.873 22.848 21.142-6.58 42.646-16.637 64.815-33.213 5.316-56.288-9.08-105.09-38.056-148.36ZM85.474 135.095c-12.645 0-23.015-11.805-23.015-26.18s10.149-26.2 23.015-26.2c12.867 0 23.236 11.804 23.015 26.2.02 14.375-10.148 26.18-23.015 26.18Zm85.051 0c-12.645 0-23.014-11.805-23.014-26.18s10.148-26.2 23.014-26.2c12.867 0 23.236 11.804 23.015 26.2 0 14.375-10.148 26.18-23.015 26.18Z"/>
	</symbol>

	<symbol id="github" viewBox="0 0 20 20">
		<path fill="currentColor" fill-rule="evenodd" d="M10 0c5.523 0 10 4.59 10 10.253 0 4.529-2.862 8.371-6.833 9.728-.507.101-.687-.219-.687-.492 0-.338.012-1.442.012-2.814 0-.956-.32-1.58-.679-1.898 2.227-.254 4.567-1.121 4.567-5.059 0-1.12-.388-2.034-1.03-2.752.104-.259.447-1.302-.098-2.714 0 0-.838-.275-2.747 1.051A9.396 9.396 0 0 0 10 4.958a9.375 9.375 0 0 0-2.503.345C5.586 3.977 4.746 4.252 4.746 4.252c-.543 1.412-.2 2.455-.097 2.714-.639.718-1.03 1.632-1.03 2.752 0 3.928 2.335 4.808 4.556 5.067-.286.256-.545.708-.635 1.371-.57.262-2.018.715-2.91-.852 0 0-.529-.985-1.533-1.057 0 0-.975-.013-.068.623 0 0 .655.315 1.11 1.5 0 0 .587 1.83 3.369 1.21.005.857.014 1.665.014 1.909 0 .271-.184.588-.683.493C2.865 18.627 0 14.783 0 10.253 0 4.59 4.478 0 10 0"/>
	</symbol>

	<symbol id="instagram" viewBox="0 0 24 24">
		<path fill="currentColor" fill-rule="evenodd" d="M2 6a4 4 0 0 1 4-4h12a4 4 0 0 1 4 4v12a4 4 0 0 1-4 4H6a4 4 0 0 1-4-4V6Zm4-2a2 2 0 0 0-2 2v12a2 2 0 0 0 2 2h12a2 2 0 0 0 2-2V6a2 2 0 0 0-2-2H6Zm6 5a3 3 0 1 0 0 6 3 3 0 0 0 0-6Zm-5 3a5 5 0 1 1 10 0 5 5 0 0 1-10 0Zm10.5-4a1.5 1.5 0 1 0 0-3 1.5 1.5 0 0 0 0 3Z"/>
	</symbol>

	<symbol id="pronouns" viewBox="0 0 650 650">
		<path d="M396.52 174.35c1.35-2.4.21-4.35-2.54-4.35l-48.2.03c-2.75 0-6.15 1.94-7.54 4.31l-118.1 199.77c-16.48 27.15-39.48 33.15-61.58 30.47-37.94-4.6-58.34-32.45-58.34-69.54 0-37.25 30.31-67.56 67.56-67.56h75c2.75 0 6.12-1.95 7.48-4.34l27.03-47.2c1.37-2.39.23-4.34-2.52-4.34h-107c-68.06 0-123.44 55.37-123.44 123.44 0 32.89 12.85 68.36 36.22 91.54 23.03 22.84 53.8 31.21 86.64 31.89 18.54.21 69.46-.21 93.33-42.68 26.73-47.57 136-241.44 136-241.44zM571.94 244.44c-23.03-22.84-53.8-31.21-86.64-31.89-18.54-.21-69.46.21-93.33 42.68-26.72 47.55-136 241.42-136 241.42-1.35 2.4-.21 4.35 2.54 4.35l48.2-.03c2.75 0 6.15-1.94 7.54-4.31l118.1-199.77c16.48-27.15 39.48-33.15 61.58-30.47 37.94 4.6 58.34 32.45 58.34 69.54 0 37.25-30.31 67.56-67.56 67.56h-75c-2.75 0-6.12 1.95-7.48 4.34l-27.03 47.2c-1.37 2.39-.23 4.34 2.52 4.34h107c68.06 0 123.44-55.37 123.44-123.44 0-32.87-12.85-68.34-36.22-91.52z" fill="currentColor"/>
	</symbol>

	<symbol id="youtube" viewBox="0 -3 20 20">
		<path fill="currentColor" fill-rule="evenodd" d="M7.988 9.586V3.974c1.993.938 3.536 1.843 5.36 2.82-1.505.834-3.367 1.77-5.36 2.792m11.103-8.403c-.344-.453-.93-.805-1.553-.922-1.833-.348-13.267-.349-15.099 0-.5.094-.945.32-1.328.673C-.5 2.429.005 10.452.393 11.75c.164.562.375.968.64 1.235.343.352.812.594 1.351.703 1.51.312 9.284.486 15.122.047a2.62 2.62 0 0 0 1.39-.712c1.49-1.49 1.388-9.962.195-11.841"/>
	</symbol>

	<symbol id="email" viewBox="0 -2.5 20 20">
		<path fill="currentColor" fill-rule="evenodd" d="M10 12.474 0 3.649V15h20V3.649l-10 8.825Zm.001-2.662L0 .981V0h20v.981l-9.999 8.831Z"/>
	</symbol>

	<symbol id="reddit" viewBox="0 0 32 32">
		<path d="M12.6 20.99a.4.4 0 0 0-.28.7 5.74 5.74 0 0 0 3.7 1.13 5.63 5.63 0 0 0 3.71-1.15l-.01.01a.45.45 0 0 0 .03-.58c-.07-.07-.17-.12-.29-.12s-.21.05-.29.12a4.92 4.92 0 0 1-3.15.91h.02l-.28.01a4.9 4.9 0 0 1-2.88-.93l.02.01a.4.4 0 0 0-.3-.12zM19.45 16A1.56 1.56 0 1 0 21 17.56c0-.86-.7-1.56-1.56-1.56zm-6.88 0a1.56 1.56 0 1 1 0 3.12 1.56 1.56 0 0 1 0-3.12zm9.7-9.07a1.55 1.55 0 1 1-1.56 1.64l-3.24-.69-1 4.68c2.18.05 4.2.74 5.87 1.89l-.03-.03c.38-.38.9-.61 1.48-.61h.03A2.2 2.2 0 0 1 26 16c0 .88-.52 1.64-1.25 2.01h-.01c.03.2.05.42.05.64v.02c0 3.36-3.91 6.08-8.75 6.08s-8.76-2.72-8.76-6.08c0-.24.02-.47.06-.7V18a2.2 2.2 0 0 1 .9-4.2c.58.01 1.1.25 1.5.62a10.55 10.55 0 0 1 5.92-1.86l1.11-5.22c.03-.1.1-.2.18-.25a.44.44 0 0 1 .3-.05l3.63.77c.24-.52.77-.88 1.37-.88h.01zM16 1a15 15 0 1 0 10.6 4.4A14.95 14.95 0 0 0 16 1z"/>
	</symbol>

</svg>